<svg width="12" height="12" viewBox="0 0 12 12" fill="none" xmlns="http://www.w3.org/2000/svg">
<path d="M1.89857 2.78447C1.89857 2.03536 2.50584 1.42809 3.25495 1.42809C4.00406 1.42809 4.61133 2.03536 4.61133 2.78447C4.61133 3.53358 4.00406 4.14085 3.25495 4.14085C2.50584 4.14085 1.89857 3.53358 1.89857 2.78447ZM3.25495 0.614258C2.05638 0.614258 1.08474 1.58589 1.08474 2.78447C1.08474 3.98305 2.05638 4.95468 3.25495 4.95468C4.45351 4.95468 5.42516 3.98305 5.42516 2.78447C5.42516 1.58589 4.45351 0.614258 3.25495 0.614258ZM7.3241 3.32702C7.3241 2.87756 7.68848 2.51319 8.13793 2.51319C8.58738 2.51319 8.95176 2.87756 8.95176 3.32702C8.95176 3.77649 8.58738 4.14085 8.13793 4.14085C7.68848 4.14085 7.3241 3.77649 7.3241 3.32702ZM8.13793 1.69936C7.23897 1.69936 6.51027 2.42809 6.51027 3.32702C6.51027 4.22595 7.23897 4.95468 8.13793 4.95468C9.03688 4.95468 9.76559 4.22595 9.76559 3.32702C9.76559 2.42809 9.03688 1.69936 8.13793 1.69936ZM1.22038 6.03979C0.54618 6.03979 -0.000366211 6.58636 -0.000366211 7.26053V7.39677V7.39736L-0.000360778 7.39877L-0.000328181 7.40219L-0.000176318 7.4112C-1.89779e-05 7.4182 0.000268571 7.42715 0.000773145 7.438C0.00178229 7.45959 0.00367576 7.48868 0.00721863 7.5241C0.0142881 7.5948 0.0280256 7.69186 0.0547843 7.80656C0.108117 8.03508 0.214778 8.34043 0.429244 8.64681C0.873502 9.28149 1.72049 9.83766 3.25495 9.83766C3.99769 9.83766 4.57938 9.70734 5.03225 9.5009C4.95141 9.23277 4.9016 8.95113 4.88706 8.66026C4.53717 8.86692 4.0214 9.02383 3.25495 9.02383C1.94101 9.02383 1.3638 8.56271 1.09595 8.18011C0.95437 7.97784 0.883008 7.77455 0.847324 7.6216C0.829577 7.54554 0.821059 7.48363 0.817006 7.4431C0.814988 7.42292 0.814098 7.40822 0.813718 7.40008L0.813463 7.3933V7.26053C0.813463 7.03581 0.995647 6.85362 1.22038 6.85362H5.27987C5.41469 6.59498 5.5806 6.35517 5.77267 6.13913C5.6245 6.07522 5.46113 6.03979 5.28953 6.03979H1.22038ZM6.66066 6.56927C6.83146 7.16076 6.47641 7.77569 5.87874 7.92359L5.56178 8.00199C5.53742 8.15808 5.52478 8.31824 5.52478 8.48144C5.52478 8.65218 5.53861 8.81956 5.56525 8.98243L5.8579 9.05291C6.46155 9.19831 6.82034 9.81954 6.64461 10.415L6.54353 10.7575C6.78182 10.9667 7.05331 11.1366 7.34878 11.2575L7.61643 10.976C8.04423 10.5262 8.76165 10.5263 9.18934 10.9763L9.45991 11.261C9.75479 11.1415 10.0261 10.9732 10.2644 10.7657L10.157 10.3936C9.98619 9.80207 10.3412 9.18714 10.9389 9.03929L11.2556 8.96089C11.28 8.8048 11.2926 8.64464 11.2926 8.48144C11.2926 8.3107 11.2788 8.14327 11.2521 7.98034L10.9597 7.90991C10.3561 7.76456 9.99731 7.14334 10.173 6.54783L10.274 6.20559C10.0358 5.99628 9.76423 5.82635 9.46876 5.70547L9.20122 5.98678C8.77342 6.43672 8.056 6.43656 7.62831 5.98651L7.35768 5.70178C7.06281 5.82125 6.79153 5.98949 6.55318 6.19697L6.66066 6.56927ZM8.40872 9.29527C7.97429 9.29527 7.62218 8.93089 7.62218 8.48144C7.62218 8.03199 7.97429 7.66761 8.40872 7.66761C8.84308 7.66761 9.1952 8.03199 9.1952 8.48144C9.1952 8.93089 8.84308 9.29527 8.40872 9.29527Z" fill="black"/>
</svg>
