<svg width="17" height="18" viewBox="0 0 17 18" fill="none" xmlns="http://www.w3.org/2000/svg">
<path d="M11.8453 9.47933C11.8453 8.5531 11.0944 7.80225 10.1682 7.80225H4.41821C3.49198 7.80225 2.74113 8.5531 2.74113 9.47933V9.9585C2.74113 10.9924 3.23502 11.5448 4.05982 12.0673C4.87357 12.5828 6.00191 12.8335 7.29321 12.8335C8.81581 12.8335 9.95249 12.5858 10.7138 12.0623C11.493 11.5266 11.8453 10.9659 11.8453 9.9585V9.47933ZM4.17863 9.47933C4.17863 9.34698 4.2859 9.23975 4.41821 9.23975H10.1682C10.3006 9.23975 10.4078 9.34698 10.4078 9.47933V9.9585C10.4078 10.2138 10.3746 10.2734 10.31 10.3897C10.2937 10.419 10.2754 10.4519 10.255 10.4925C10.1559 10.6909 10.002 10.8542 9.77319 10.9865C9.30121 11.2593 8.51892 11.396 7.29321 11.396C6.31682 11.396 5.52384 11.262 4.98345 10.9813C4.71638 10.8426 4.51755 10.6714 4.38502 10.4685C4.35423 10.4215 4.32654 10.3851 4.3022 10.353C4.22249 10.2481 4.17863 10.1904 4.17863 9.9585V9.47933ZM9.68905 4.92725C9.68905 6.25043 8.61638 7.32308 7.29321 7.32308C5.97003 7.32308 4.89738 6.25043 4.89738 4.92725C4.89738 3.60407 5.97003 2.53141 7.29321 2.53141C8.61638 2.53141 9.68905 3.60407 9.68905 4.92725ZM8.25155 4.92725C8.25155 4.39798 7.8225 3.96891 7.29321 3.96891C6.76394 3.96891 6.33488 4.39798 6.33488 4.92725C6.33488 5.45651 6.76394 5.88558 7.29321 5.88558C7.8225 5.88558 8.25155 5.45651 8.25155 4.92725ZM0.105713 3.72933C0.105713 2.00919 1.50016 0.614746 3.2203 0.614746H11.3661C13.0862 0.614746 14.4807 2.00919 14.4807 3.72933V11.8752C14.4807 13.5953 13.0862 14.9897 11.3661 14.9897H3.2203C1.50016 14.9897 0.105713 13.5953 0.105713 11.8752V3.72933ZM3.2203 2.05225C2.29407 2.05225 1.54321 2.8031 1.54321 3.72933V11.8752C1.54321 12.8014 2.29407 13.5522 3.2203 13.5522H11.3661C12.2924 13.5522 13.0432 12.8014 13.0432 11.8752V3.72933C13.0432 2.8031 12.2924 2.05225 11.3661 2.05225H3.2203ZM5.61612 17.3856C4.51345 17.3856 3.54463 16.8125 2.99115 15.9481H11.8453C13.8301 15.9481 15.439 14.339 15.439 12.3543V3.50015C16.3036 4.05363 16.8765 5.02246 16.8765 6.12512V12.3543C16.8765 15.1329 14.624 17.3856 11.8453 17.3856H5.61612Z" fill="#444444"/>
</svg>
