<svg width="15" height="18" viewBox="0 0 15 18" fill="none" xmlns="http://www.w3.org/2000/svg">
<path d="M10.1507 13.3333V14.25C10.1507 15.7688 9.01828 17 7.62139 17C6.22449 17 5.09209 15.7688 5.09209 14.25V13.3333M10.1507 13.3333H5.09209M10.1507 13.3333H13.1778C13.5003 13.3333 13.6624 13.3333 13.793 13.2854C14.0424 13.194 14.2376 12.981 14.3217 12.7098C14.3659 12.5673 14.3659 12.3905 14.3659 12.0371C14.3659 11.8825 14.3658 11.8051 14.3547 11.7314C14.3336 11.5921 14.2839 11.46 14.2081 11.3453C14.1681 11.2847 14.1173 11.2294 14.017 11.1203L13.6886 10.7633C13.5826 10.6481 13.5231 10.4918 13.5231 10.3289V6.91667C13.5231 3.37283 10.8808 0.499991 7.62139 0.5C4.36197 0.500009 1.71969 3.37285 1.71969 6.91667V10.3289C1.71969 10.4918 1.66003 10.6481 1.55407 10.7633L1.22568 11.1203C1.1251 11.2297 1.07475 11.2846 1.03467 11.3453C0.95892 11.46 0.908748 11.5921 0.887716 11.7314C0.876587 11.8051 0.876587 11.8825 0.876587 12.0371C0.876587 12.3906 0.876587 12.5672 0.920809 12.7098C1.00495 12.981 1.20101 13.194 1.45045 13.2854C1.58105 13.3333 1.74246 13.3333 2.06498 13.3333H5.09209" stroke="#444444" stroke-linecap="round" stroke-linejoin="round"/>
</svg>
